<?xml version="1.0" encoding="UTF-8"?>
<svg version="1.1" xmlns="http://www.w3.org/2000/svg" width="500" height="300">
<path d="M0 0 C165 0 330 0 500 0 C500 99 500 198 500 300 C335 300 170 300 0 300 C0 201 0 102 0 0 Z " fill="#C8102E" transform="translate(0,0)"/>
<path d="M0 0 C72.6 0 145.2 0 220 0 C220 39.6 220 79.2 220 120 C147.4 120 74.8 120 0 120 C0 80.4 0 40.8 0 0 Z " fill="#FEFDFE" transform="translate(280,180)"/>
<path d="M0 0 C72.6 0 145.2 0 220 0 C220 39.6 220 79.2 220 120 C147.4 120 74.8 120 0 120 C0 80.4 0 40.8 0 0 Z " fill="#FEFDFE" transform="translate(0,180)"/>
<path d="M0 0 C72.6 0 145.2 0 220 0 C220 39.6 220 79.2 220 120 C147.4 120 74.8 120 0 120 C0 80.4 0 40.8 0 0 Z " fill="#FEFDFD" transform="translate(280,0)"/>
<path d="M0 0 C72.6 0 145.2 0 220 0 C220 39.6 220 79.2 220 120 C147.4 120 74.8 120 0 120 C0 80.4 0 40.8 0 0 Z " fill="#FEFDFD" transform="translate(0,0)"/>
<path d="M0 0 C12.38942635 6.75786892 12.38942635 6.75786892 18.08984375 10.14453125 C18.70799454 10.51128464 19.32614532 10.87803802 19.96302795 11.25590515 C21.95580999 12.43928022 23.94673739 13.62573136 25.9375 14.8125 C27.35610707 15.65627139 28.7747271 16.50002099 30.19335938 17.34375 C39.72995083 23.02178237 49.22751689 28.76180122 58.70431519 34.53897095 C68.09529495 40.26254271 77.53579648 45.89843256 87 51.5 C100.75096533 59.63887365 114.42866139 67.89247498 128.06542969 76.22119141 C131.7748817 78.46969951 135.51144971 80.67119864 139.25634766 82.86010742 C139.83175293 83.23627197 140.4071582 83.61243652 141 84 C141 84.33 141 84.66 141 85 C94.47 85 47.94 85 0 85 C0 56.95 0 28.9 0 0 Z " fill="#012169" transform="translate(300,215)"/>
<path d="M0 0 C0 28.05 0 56.1 0 85 C-46.53 85 -93.06 85 -141 85 C-137.16594483 81.93275586 -133.68910326 79.51164345 -129.49609375 77.05078125 C-128.55613304 76.49640633 -128.55613304 76.49640633 -127.59718323 75.93083191 C-126.24925332 75.13618991 -124.90033964 74.34321473 -123.55053711 73.55175781 C-119.92325986 71.42442571 -116.30367002 69.28408678 -112.68359375 67.14453125 C-111.94781097 66.71000641 -111.2120282 66.27548157 -110.45394897 65.82778931 C-103.60081824 61.77546131 -96.79603283 57.64730745 -90 53.5 C-80.04253511 47.42714753 -70.03690633 41.44058745 -60 35.5 C-49.60979617 29.35007221 -39.25172187 23.15159613 -28.9375 16.875 C-28.35511566 16.52067902 -27.77273132 16.16635803 -27.17269897 15.80130005 C-24.427606 14.13096952 -21.68295317 12.45991726 -18.93847656 10.78857422 C-14.90083518 8.33096698 -10.8600505 5.87875246 -6.8125 3.4375 C-5.68457031 2.75558594 -4.55664062 2.07367188 -3.39453125 1.37109375 C-1 0 -1 0 0 0 Z " fill="#022169" transform="translate(200,215)"/>
<path d="M0 0 C46.53 0 93.06 0 141 0 C137.16594483 3.06724414 133.68910326 5.48835655 129.49609375 7.94921875 C128.86945328 8.31880203 128.24281281 8.68838531 127.59718323 9.06916809 C126.24925332 9.86381009 124.90033964 10.65678527 123.55053711 11.44824219 C119.92325986 13.57557429 116.30367002 15.71591322 112.68359375 17.85546875 C111.94781097 18.28999359 111.2120282 18.72451843 110.45394897 19.17221069 C103.60081824 23.22453869 96.79603283 27.35269255 90 31.5 C80.04253511 37.57285247 70.03690633 43.55941255 60 49.5 C49.60979617 55.64992779 39.25172187 61.84840387 28.9375 68.125 C28.35511566 68.47932098 27.77273132 68.83364197 27.17269897 69.19869995 C24.427606 70.86903048 21.68295317 72.54008274 18.93847656 74.21142578 C14.90083518 76.66903302 10.8600505 79.12124754 6.8125 81.5625 C5.12060547 82.58537109 5.12060547 82.58537109 3.39453125 83.62890625 C1 85 1 85 0 85 C0 56.95 0 28.9 0 0 Z " fill="#012169" transform="translate(300,0)"/>
<path d="M0 0 C46.53 0 93.06 0 141 0 C141 28.05 141 56.1 141 85 C128.61057365 78.24213108 128.61057365 78.24213108 122.91015625 74.85546875 C122.29200546 74.48871536 121.67385468 74.12196198 121.03697205 73.74409485 C119.04419001 72.56071978 117.05326261 71.37426864 115.0625 70.1875 C113.64389293 69.34372861 112.2252729 68.49997901 110.80664062 67.65625 C101.27004917 61.97821763 91.77248311 56.23819878 82.29568481 50.46102905 C72.90470505 44.73745729 63.46420352 39.10156744 54 33.5 C40.24903467 25.36112635 26.57133861 17.10752502 12.93457031 8.77880859 C9.2251183 6.53030049 5.48855029 4.32880136 1.74365234 2.13989258 C1.16824707 1.76372803 0.5928418 1.38756348 0 1 C0 0.67 0 0.34 0 0 Z " fill="#022169" transform="translate(59,0)"/>
<path d="M0 0 C1.59239716 0.03015535 3.1848497 0.05752129 4.77734375 0.08203125 C8.64461832 0.14754866 12.50918506 0.25074849 16.375 0.375 C16.375 1.695 16.375 3.015 16.375 4.375 C14.15722656 6.11987305 14.15722656 6.11987305 11.015625 7.88671875 C10.16513832 8.37436958 10.16513832 8.37436958 9.29747009 8.87187195 C8.06378321 9.57716749 6.82619509 10.27567189 5.58529663 10.96820068 C2.91713646 12.45765172 0.26798938 13.97952148 -2.38264465 15.49987793 C-3.75962329 16.28936303 -5.13755786 17.07718298 -6.5164032 17.86340332 C-13.23542528 21.70005186 -19.84003113 25.7082173 -26.4375 29.75 C-36.45460641 35.86944881 -46.52288033 41.89701876 -56.625 47.875 C-67.79959114 54.4885233 -78.92338058 61.17836215 -90.00952148 67.93896484 C-100.52018125 74.34104297 -111.10374707 80.61854674 -121.70507812 86.86914062 C-122.3433403 87.24698196 -122.98160248 87.6248233 -123.63920593 88.01411438 C-124.89623813 88.75582135 -126.15632754 89.49237286 -127.41950989 90.22355652 C-130.18250603 91.83828554 -132.77098375 93.48966044 -135.28979492 95.46801758 C-144.04850451 102.22575992 -153.26793181 101.16688308 -163.8125 100.8125 C-165.64121596 100.77732303 -167.46999746 100.74539534 -169.29882812 100.71679688 C-173.74252715 100.64031568 -178.18302691 100.51989195 -182.625 100.375 C-179.98093665 97.36372185 -176.74082369 95.51366207 -173.31640625 93.5234375 C-172.68693588 93.15243927 -172.05746552 92.78144104 -171.40892029 92.39920044 C-170.04921312 91.59828201 -168.68833365 90.79935112 -167.32641602 90.00219727 C-163.67162989 87.86255589 -160.02570695 85.70790141 -156.37890625 83.5546875 C-155.63694 83.11707092 -154.89497375 82.67945435 -154.13052368 82.22857666 C-147.25840657 78.1704718 -140.43705562 74.03306571 -133.625 69.875 C-122.99267044 63.39018446 -112.30130841 57.01021221 -101.58398438 50.66699219 C-92.22815909 45.12794893 -82.9081171 39.53501149 -73.625 33.875 C-61.95362199 26.7604636 -50.21839102 19.75765156 -38.45703125 12.79296875 C-37.81611542 12.41267517 -37.17519958 12.03238159 -36.51486206 11.64056396 C-35.25956803 10.89901127 -34.00139484 10.16230883 -32.74026489 9.4307251 C-30.0979544 7.89103674 -27.55797949 6.3254693 -25.09716797 4.50683594 C-17.35107747 -1.0803463 -9.1166764 -0.301927 0 0 Z " fill="#C81330" transform="translate(183.625,199.625)"/>
<path d="M0 0 C1.82871596 0.03517697 3.65749746 0.06710466 5.48632812 0.09570312 C9.93002715 0.17218432 14.37052691 0.29260805 18.8125 0.4375 C15.16336439 3.4934117 11.41152388 5.9787238 7.30859375 8.38671875 C6.68195328 8.75630203 6.05531281 9.12588531 5.40968323 9.50666809 C4.06175332 10.30131009 2.71283964 11.09428527 1.36303711 11.88574219 C-2.26424014 14.01307429 -5.88382998 16.15341322 -9.50390625 18.29296875 C-10.23968903 18.72749359 -10.9754718 19.16201843 -11.73355103 19.60971069 C-18.58668176 23.66203869 -25.39146717 27.79019255 -32.1875 31.9375 C-42.81999921 38.42204198 -53.51118721 44.80228521 -64.22851562 51.14550781 C-73.58433714 56.68454884 -82.90453066 62.27725019 -92.1875 67.9375 C-103.91398901 75.08730206 -115.70770837 82.11935429 -127.53125 89.10742188 C-128.49998047 89.6815406 -128.49998047 89.6815406 -129.48828125 90.26725769 C-130.74395178 91.00875313 -132.00237745 91.74560508 -133.26367188 92.47749329 C-136.37450542 94.29407165 -139.19601432 96.23488101 -142.015625 98.46484375 C-148.09510202 102.30753206 -156.75697987 100.93918292 -163.6875 100.75 C-165.28902768 100.72488499 -166.89059329 100.70207746 -168.4921875 100.68164062 C-172.39157136 100.6268986 -176.28911285 100.54080853 -180.1875 100.4375 C-180.1875 99.1175 -180.1875 97.7975 -180.1875 96.4375 C-177.96972656 94.69262695 -177.96972656 94.69262695 -174.828125 92.92578125 C-174.26113388 92.60068069 -173.69414276 92.27558014 -173.10997009 91.94062805 C-171.87628321 91.23533251 -170.63869509 90.53682811 -169.39779663 89.84429932 C-166.72963646 88.35484828 -164.08048938 86.83297852 -161.42985535 85.31262207 C-160.05287671 84.52313697 -158.67494214 83.73531702 -157.2960968 82.94909668 C-150.57707472 79.11244814 -143.97246887 75.1042827 -137.375 71.0625 C-127.35789359 64.94305119 -117.28961967 58.91548124 -107.1875 52.9375 C-96.01290886 46.3239767 -84.88911942 39.63413785 -73.80297852 32.87353516 C-63.29231875 26.47145703 -52.70875293 20.19395326 -42.10742188 13.94335938 C-41.4691597 13.56551804 -40.83089752 13.1876767 -40.17329407 12.79838562 C-38.91626187 12.05667865 -37.65617246 11.32012714 -36.39299011 10.58894348 C-33.62999397 8.97421446 -31.04151625 7.32283956 -28.52270508 5.34448242 C-19.76399549 -1.41325992 -10.54456819 -0.35438308 0 0 Z " fill="#C81230" transform="translate(480.1875,-0.43749999999999994)"/>
<path d="M0 0 C35.64 0 71.28 0 108 0 C108 21.45 108 42.9 108 65 C95.61057365 58.24213108 95.61057365 58.24213108 89.91015625 54.85546875 C89.29200546 54.48871536 88.67385468 54.12196198 88.03697205 53.74409485 C86.04419001 52.56071978 84.05326261 51.37426864 82.0625 50.1875 C80.64389293 49.34372861 79.2252729 48.49997901 77.80664062 47.65625 C67.71190667 41.64590275 57.66159868 35.56496625 47.6328125 29.4453125 C41.22031294 25.53680597 34.78278438 21.6742615 28.31640625 17.85546875 C27.58569916 17.4236026 26.85499207 16.99173645 26.10214233 16.54678345 C22.53547652 14.43976772 18.96611351 12.3375305 15.39257812 10.2421875 C14.09628285 9.47798554 12.80005548 8.71366839 11.50390625 7.94921875 C10.36767822 7.28237061 9.2314502 6.61552246 8.06079102 5.9284668 C5 4 5 4 0 0 Z " fill="#022269" transform="translate(392,200)"/>
<path d="M0 0 C35.64 0 71.28 0 108 0 C104.34181426 2.92654859 101.14994529 5.20520178 97.15234375 7.51171875 C96.59242737 7.83681931 96.03251099 8.16191986 95.45562744 8.49687195 C94.24905903 9.19727166 93.04151812 9.89599827 91.83309937 10.59320068 C88.55478033 12.48572204 85.28503507 14.39292187 82.015625 16.30078125 C81.34375656 16.69269653 80.67188812 17.08461182 79.97966003 17.48840332 C73.33457906 21.37331063 66.7568125 25.3634155 60.1875 29.375 C48.54697388 36.48158853 36.83888258 43.46893205 25.09643555 50.40576172 C23.82590577 51.15705182 22.55547729 51.90851325 21.28515625 52.66015625 C20.6760289 53.02038879 20.06690155 53.38062134 19.4393158 53.75177002 C14.05059243 56.9488123 8.72518971 60.24363382 3.41186523 63.56420898 C1 65 1 65 0 65 C0 43.55 0 22.1 0 0 Z " fill="#022269" transform="translate(0,200)"/>
<path d="M0 0 C0 21.45 0 42.9 0 65 C-35.64 65 -71.28 65 -108 65 C-104.34181426 62.07345141 -101.14994529 59.79479822 -97.15234375 57.48828125 C-96.31246918 57.00063042 -96.31246918 57.00063042 -95.45562744 56.50312805 C-94.24905903 55.80272834 -93.04151812 55.10400173 -91.83309937 54.40679932 C-88.55478033 52.51427796 -85.28503507 50.60707813 -82.015625 48.69921875 C-81.00782234 48.11134583 -81.00782234 48.11134583 -79.97966003 47.51159668 C-73.33457906 43.62668937 -66.7568125 39.6365845 -60.1875 35.625 C-48.54697388 28.51841147 -36.83888258 21.53106795 -25.09643555 14.59423828 C-23.82590577 13.84294818 -22.55547729 13.09148675 -21.28515625 12.33984375 C-20.6760289 11.97961121 -20.06690155 11.61937866 -19.4393158 11.24822998 C-14.05059243 8.0511877 -8.72518971 4.75636618 -3.41186523 1.43579102 C-1 0 -1 0 0 0 Z " fill="#022269" transform="translate(500,35)"/>
<path d="M0 0 C12.38942635 6.75786892 12.38942635 6.75786892 18.08984375 10.14453125 C18.70799454 10.51128464 19.32614532 10.87803802 19.96302795 11.25590515 C21.95580999 12.43928022 23.94673739 13.62573136 25.9375 14.8125 C27.35610707 15.65627139 28.7747271 16.50002099 30.19335938 17.34375 C40.28809333 23.35409725 50.33840132 29.43503375 60.3671875 35.5546875 C66.77968706 39.46319403 73.21721562 43.3257385 79.68359375 47.14453125 C80.41430084 47.5763974 81.14500793 48.00826355 81.89785767 48.45321655 C85.46452348 50.56023228 89.03388649 52.6624695 92.60742188 54.7578125 C93.90371715 55.52201446 95.19994452 56.28633161 96.49609375 57.05078125 C98.20043579 58.05105347 98.20043579 58.05105347 99.93920898 59.0715332 C103 61 103 61 108 65 C72.36 65 36.72 65 0 65 C0 43.55 0 22.1 0 0 Z " fill="#022269" transform="translate(0,35)"/>
<path d="M0 0 C27.44632229 -2.69359568 44.83594368 0.38142427 67.30224609 16.41357422 C72.44884791 20.06297051 77.8568639 23.25860304 83.27993774 26.47512817 C85.57826294 27.84454881 87.86149381 29.23810442 90.14506531 30.63194275 C99.0532858 36.06748709 108.03509516 41.378417 117.01583862 46.69290161 C128.07749642 53.24056487 139.08553503 59.87206544 150.05664062 66.5703125 C151.13236328 67.22644531 152.20808594 67.88257813 153.31640625 68.55859375 C154.24912354 69.12892334 155.18184082 69.69925293 156.14282227 70.28686523 C159.3999266 72.23979193 162.70265861 74.11580492 166 76 C166 83.92 166 91.84 166 100 C157.21443354 95.28780995 148.62339395 90.29097162 140.0625 85.1875 C138.64389293 84.34372861 137.2252729 83.49997901 135.80664062 82.65625 C126.27004917 76.97821763 116.77248311 71.23819878 107.29568481 65.46102905 C97.9047055 59.73745757 88.46421483 54.10154725 79 48.5 C67.83119958 41.88956645 56.71080412 35.20666007 45.63305664 28.44482422 C39.19719235 24.52405644 32.7372884 20.64886183 26.24609375 16.8203125 C25.51065338 16.38607971 24.77521301 15.95184692 24.01748657 15.50445557 C20.42080071 13.38162143 16.82119326 11.26401217 13.21679688 9.15429688 C11.91396681 8.38688119 10.61122775 7.61931096 9.30859375 6.8515625 C8.71308212 6.50545929 8.1175705 6.15935608 7.50401306 5.80276489 C4.66152658 4.12167731 2.18796933 2.49184054 0 0 Z " fill="#C81330" transform="translate(334,200)"/>
<path d="M0 0 C9.76668434 5.55125736 19.4698054 11.19491421 29.125 16.9375 C29.81319824 17.34629395 30.50139648 17.75508789 31.21044922 18.17626953 C41.41223784 24.23745603 51.57306425 30.36260672 61.70513916 36.53952026 C71.09584879 42.26289869 80.53606993 47.8986213 90 53.5 C101.16663045 60.10914922 112.28416886 66.7911231 123.36035156 73.55078125 C129.83465184 77.49440436 136.33237891 81.39414093 142.859375 85.25 C143.60191528 85.68896606 144.34445557 86.12793213 145.10949707 86.5802002 C148.75218946 88.73261883 152.39759022 90.88026233 156.046875 93.02148438 C157.35943924 93.79546398 158.67194248 94.56954705 159.984375 95.34375 C160.59537048 95.70017578 161.20636597 96.05660156 161.83587646 96.42382812 C163.24074757 97.25473264 164.6233119 98.12319042 166 99 C166 99.33 166 99.66 166 100 C138.55367771 102.69359568 121.16405632 99.61857573 98.69775391 83.58642578 C93.55115209 79.93702949 88.1431361 76.74139696 82.72006226 73.52487183 C80.42173706 72.15545119 78.13850619 70.76189558 75.85493469 69.36805725 C66.9467142 63.93251291 57.96490484 58.621583 48.98416138 53.30709839 C37.92250358 46.75943513 26.91446497 40.12793456 15.94335938 33.4296875 C14.86763672 32.77355469 13.79191406 32.11742187 12.68359375 31.44140625 C11.75087646 30.87107666 10.81815918 30.30074707 9.85717773 29.71313477 C6.6000734 27.76020807 3.29734139 25.88419508 0 24 C0 16.08 0 8.16 0 0 Z " fill="#C81230" transform="translate(0,0)"/>
</svg>
